<svg width="214" height="89" viewBox="0 0 214 89" fill="none" xmlns="http://www.w3.org/2000/svg">
<path d="M197.445 51.542C196.775 51.5246 196.139 51.2625 195.678 50.8132C195.216 50.3639 194.967 49.764 194.983 49.1451V22.2471L188.392 23.1792V48.9204C188.356 50.6792 189.075 52.3799 190.393 53.6508C191.711 54.9217 193.52 55.6595 195.425 55.7032H199.086V51.542H197.445Z" fill="white"/>
<path d="M121.243 55.6949H127.825V30.1201L121.243 31.0522V55.6949Z" fill="white"/>
<path d="M132 34.6059V55.7032H138.591V38.9751V36.9944C138.591 33.8735 146.193 34.4977 146.193 34.4977L148.564 29.7123C138.005 26.9326 132 34.6059 132 34.6059Z" fill="white"/>
<path d="M157.193 49.1202V34.3062H161.152V29.6623H157.193V22.2471L150.602 23.1792V48.9204C150.565 50.675 151.281 52.372 152.593 53.6422C153.905 54.9124 155.707 55.6531 157.608 55.7032H161.269V51.542H159.628C158.957 51.5181 158.324 51.2498 157.868 50.7957C157.412 50.3417 157.169 49.7391 157.193 49.1202V49.1202Z" fill="white"/>
<path d="M124.534 20C123.728 20 122.94 20.2206 122.269 20.634C121.599 21.0473 121.077 21.6348 120.768 22.3222C120.46 23.0096 120.379 23.7659 120.536 24.4956C120.694 25.2253 121.082 25.8956 121.652 26.4217C122.222 26.9478 122.948 27.306 123.739 27.4512C124.529 27.5963 125.349 27.5218 126.093 27.2371C126.838 26.9524 127.475 26.4703 127.923 25.8516C128.37 25.233 128.609 24.5057 128.609 23.7617C128.609 23.2677 128.504 22.7786 128.299 22.3222C128.094 21.8658 127.794 21.4511 127.416 21.1018C127.037 20.7525 126.588 20.4754 126.093 20.2863C125.599 20.0973 125.069 20 124.534 20V20Z" fill="white"/>
<path d="M173.767 50.9677C169.393 49.4198 169.718 43.3943 169.718 43.3943H185.561C185.561 35.8292 183.586 29.2878 175.642 29.2878C167.698 29.2878 162.946 34.6808 162.946 42.2458C162.946 49.8109 167.969 55.7032 175.922 55.7032C179.087 55.7032 183.415 54.7295 185.786 53.09L183.532 49.4697C183.532 49.4697 178.14 52.5074 173.767 50.9677ZM174.668 33.9234C178.446 33.9234 179.177 38.8503 179.177 38.8503H170.151C170.151 38.8503 170.908 33.9234 174.686 33.9234H174.668Z" fill="white"/>
<path d="M108.204 29.4709C106.328 29.514 104.459 29.6921 102.614 30.0036C100.733 30.4261 98.9478 31.1501 97.3386 32.1424L99.4305 36.1205C101.365 34.6173 103.809 33.787 106.338 33.7736C111.955 33.7736 111.162 38.9751 111.162 38.9751C100.224 36.9028 94.8499 42.0877 95.0032 47.4307C95.0753 49.8525 95.427 52.316 98.4206 54.1386C107.997 59.9643 117.293 51.4837 117.293 51.4837V37.3939C117.293 33.1494 113.217 29.4709 108.204 29.4709ZM111.017 50.6182C111.017 50.6182 106.698 52.4824 103.93 50.9511C101.162 49.4198 101.477 45.2336 104.092 43.9436C106.707 42.6536 111.017 43.4443 111.017 43.4443V50.6182Z" fill="white"/>
<path d="M22.8292 22.4819C-3.98697 43.2425 5.68472 50.1074 12.1028 52.7578C18.5208 55.4083 27.0647 51.7682 37.7262 44.6266C48.3878 37.4849 73.1512 23.7414 78.9851 30.5924C84.8189 37.4434 84.9406 51.0347 59.9419 68.9304C34.9432 86.8261 29.7585 76.3627 42.0915 68.1553C54.4245 59.9479 52.1608 55.0069 46.3269 54.3149C40.2091 53.5606 34.9675 54.8062 29.4907 63.3112C29.4907 63.3112 21.1659 77.027 31.8194 80.5425C39.2435 82.9923 61.159 75.4492 77.2568 61.6226C89.1193 51.4361 97.7929 39.2565 94.1661 23.0078C89.4357 1.72122 49.6455 1.7835 22.8292 22.4819Z" fill="white"/>
</svg>
