<svg width="161" height="34" viewBox="0 0 161 34" fill="none" xmlns="http://www.w3.org/2000/svg">
<g clip-path="url(#clip0)">
<path d="M21.0543 34.2173C20.397 34.1673 19.7362 34.133 19.0822 34.0659C14.8025 33.6247 10.9905 32.3447 7.70021 30.1678C4.26077 27.9177 1.80707 24.8916 0.67921 21.5091C0.051288 19.684 -0.165388 17.7882 0.0387808 15.9056C0.377632 12.6199 1.78895 9.63581 4.35913 7.01515C7.95774 3.34491 12.7169 1.10221 18.5909 0.423998C25.002 -0.317425 30.7895 0.940229 35.7893 4.12848C40.0978 6.87161 42.6968 10.4418 43.4863 14.7244C44.4181 19.7747 42.7476 24.3102 38.5086 28.2148C34.9388 31.5071 30.3355 33.4074 24.8647 34.0488C24.1785 34.1304 23.4822 34.162 22.791 34.2173H21.0543ZM17.0254 11.6981C15.2583 11.6981 13.4929 11.6981 11.7258 11.6981C11.2548 11.6981 11.087 11.8087 11.0481 12.1696C11.0049 12.5203 11.0134 12.8738 11.0735 13.2231C11.1204 13.5174 11.3047 13.7881 11.5914 13.9837C11.8781 14.1794 12.2473 14.2864 12.6288 14.2845C13.0354 14.2911 13.442 14.2845 13.8487 14.2845C14.3569 14.2845 14.3569 14.2845 14.3569 14.673C14.3569 16.1436 14.3569 17.6141 14.3569 19.0847C14.3559 19.6716 14.4544 20.2561 14.65 20.823C15.1939 22.4033 16.3799 23.5345 18.4384 24.006C20.1581 24.401 21.8845 24.3049 23.5822 23.8743C23.9803 23.7729 23.9871 23.7729 23.9888 24.1008C23.9888 25.0121 23.9803 25.9234 23.9888 26.8347C23.9854 27.0298 24.0324 27.2235 24.127 27.4042C24.2216 27.5849 24.362 27.7491 24.5397 27.8869C24.7175 28.0247 24.929 28.1333 25.1618 28.2064C25.3945 28.2795 25.6438 28.3155 25.8948 28.3123C26.4522 28.3123 27.0113 28.3202 27.5688 28.3123C27.6649 28.3139 27.7605 28.3004 27.8498 28.2725C27.939 28.2446 28.02 28.2029 28.088 28.15C28.1559 28.097 28.2093 28.0339 28.245 27.9645C28.2807 27.8951 28.2979 27.8208 28.2956 27.746C28.2956 27.638 28.2956 27.53 28.2956 27.422C28.2956 23.171 28.2956 18.9214 28.2956 14.673C28.2956 14.1884 28.2956 14.1884 28.9021 14.1884C29.6103 14.1884 30.3202 14.1884 31.0284 14.1884C31.5536 14.1884 31.7061 14.0633 31.7061 13.6484C31.7061 13.3789 31.7061 13.1081 31.7061 12.8359C31.6943 12.0984 31.0572 11.6072 30.1 11.6006C29.263 11.5954 28.4266 11.5954 27.5908 11.6006C27.4809 11.6065 27.3709 11.5914 27.2703 11.5568C27.1696 11.5221 27.0813 11.4689 27.013 11.4018C26.6996 11.1121 26.3743 10.8289 26.0541 10.5445C24.2311 8.90712 22.4041 7.27239 20.5732 5.64029C20.3585 5.43114 20.085 5.26302 19.7736 5.14888C19.4623 5.03473 19.1214 4.97758 18.7773 4.98183C17.6472 4.99237 16.6442 5.37691 15.6022 5.64951C15.2854 5.73116 15.2515 6.04459 15.4735 6.24212C15.5516 6.30903 15.6342 6.37277 15.7208 6.43308C17.9708 8.09327 20.2213 9.75257 22.4724 11.411C22.5538 11.4703 22.7029 11.5269 22.6656 11.6178C22.6181 11.7363 22.447 11.6876 22.3267 11.6876C20.5596 11.6876 18.7942 11.6876 17.0271 11.6876L17.0254 11.6981ZM160.964 22.7365C160.731 23.0341 160.395 23.1408 159.939 23.1381C157.627 23.125 155.314 23.1381 153.001 23.1263C152.663 23.1263 152.51 23.1869 152.524 23.4674C152.535 23.6728 152.466 23.8795 152.463 24.0863C152.444 25.0806 153.267 25.7469 154.552 25.8194C155.836 25.8918 157.056 25.6166 158.221 25.1951C159.053 24.8962 159.218 24.9318 159.728 25.5375C160.09 25.9669 160.405 26.4041 160.154 26.9506C160.019 27.2717 159.729 27.54 159.346 27.6999C157.576 28.4282 155.68 28.6402 153.704 28.5059C152.775 28.4529 151.867 28.2592 151.033 27.9356C149.072 27.1455 148.091 25.8602 147.998 24.189C147.92 22.7931 147.958 21.3919 147.988 19.9933C148.037 17.6058 150.126 15.8648 153.24 15.5804C154.348 15.4614 155.473 15.4912 156.568 15.6686C159.052 16.1098 160.541 17.3714 160.9 19.3322C160.914 19.402 160.939 19.4718 160.959 19.5416L160.964 22.7365ZM154.709 21.1009C155.36 21.1009 156.01 21.1009 156.661 21.1009C156.896 21.1009 157 21.035 157 20.848C157 20.5596 157 20.2712 157 19.9828C156.957 19.061 156.287 18.446 155.104 18.3288C153.606 18.1799 152.505 18.7791 152.474 20.0131C152.474 20.2765 152.486 20.5399 152.474 20.8032C152.463 21.0666 152.588 21.114 152.884 21.1074C153.499 21.0956 154.114 21.1074 154.731 21.1074L154.709 21.1009ZM58.0417 25.7759C58.0417 26.408 58.0417 27.0388 58.0417 27.6709C58.0417 28.1016 57.7519 28.3531 57.1945 28.3636C56.3237 28.3794 55.4528 28.3794 54.582 28.3636C54.0737 28.3544 53.7958 28.1345 53.7349 27.7473C53.7182 27.6398 53.7108 27.5316 53.7128 27.4234C53.7128 22.6245 53.7128 17.8257 53.7128 13.0269C53.7128 12.8952 53.7281 12.774 53.7433 12.6489C53.7587 12.4759 53.8432 12.3109 53.985 12.177C54.1269 12.0432 54.319 11.9471 54.5345 11.9022C56.444 11.4084 58.3991 11.1121 60.417 11.1529C62.0011 11.1885 63.4989 11.4821 64.8221 12.1906C66.3469 13.0032 67.2601 14.1344 67.4804 15.5435C67.7266 16.9488 67.7169 18.3741 67.4515 19.7774C67.2234 20.8286 66.5603 21.7933 65.5629 22.5251C64.5655 23.2568 63.2882 23.7157 61.9249 23.8321C60.7135 23.9467 59.5123 23.9454 58.3466 23.6149C58.0874 23.5411 58.0467 23.632 58.0467 23.8018C58.0467 24.4603 58.0467 25.1188 58.0467 25.7772L58.0417 25.7759ZM58.1806 17.4319C58.1806 18.3696 58.1907 19.3059 58.1806 20.2436C58.1676 20.3404 58.1984 20.4378 58.2676 20.519C58.3369 20.6002 58.4403 20.6602 58.5601 20.6887C59.1988 20.9139 59.8664 20.9191 60.5424 20.8902C62.1265 20.823 63.2532 19.9209 63.2532 18.6883C63.2447 17.7743 63.343 16.8604 63.1261 15.9465C62.9567 15.2129 62.545 14.6388 61.6572 14.3174C60.6101 13.9382 59.5411 13.9869 58.4652 14.2397C58.2212 14.2977 58.1924 14.4241 58.1924 14.5927C58.1924 15.5382 58.1924 16.4851 58.1924 17.4319H58.1806ZM132.579 20.1922V13.0176C132.579 12.2683 132.796 12.0444 133.705 11.8219C135.491 11.386 137.313 11.1173 139.188 11.1503C140.996 11.1819 142.682 11.5335 144.118 12.4382C144.74 12.8208 145.259 13.2955 145.643 13.8349C146.027 14.3742 146.27 14.9675 146.356 15.5804C146.591 16.924 146.591 18.2862 146.356 19.6299C145.935 21.8186 144.044 23.3093 141.223 23.7689C139.925 24.0048 138.568 23.9593 137.301 23.6372C136.992 23.553 136.921 23.6175 136.923 23.8545C136.933 25.0911 136.923 26.3277 136.923 27.563C136.923 28.1437 136.637 28.3729 135.906 28.3755C135.176 28.3781 134.419 28.3755 133.675 28.3755C132.931 28.3755 132.599 28.1305 132.591 27.5353V20.1922H132.579ZM137.055 17.4267C137.055 18.3735 137.063 19.3217 137.055 20.2686C137.044 20.3567 137.072 20.445 137.133 20.5195C137.194 20.594 137.286 20.6504 137.394 20.6794C138.029 20.9125 138.697 20.9218 139.374 20.8954C140.982 20.8362 142.106 19.9328 142.121 18.6856C142.121 18.0812 142.121 17.4754 142.121 16.8709C142.103 16.3959 142.002 15.925 141.821 15.4711C141.736 15.2302 141.585 15.0065 141.378 14.8155C141.17 14.6245 140.912 14.4707 140.621 14.3648C139.59 13.9566 138.519 13.9895 137.431 14.2108C137.372 14.2167 137.316 14.2318 137.264 14.2549C137.213 14.2781 137.168 14.309 137.132 14.3457C137.097 14.3825 137.071 14.4244 137.056 14.4691C137.041 14.5137 137.038 14.5602 137.047 14.6058C137.063 15.5448 137.047 16.4824 137.047 17.4214L137.055 17.4267ZM69.8557 19.7076C69.8557 17.0904 69.8557 14.4733 69.8557 11.8561C69.8557 11.2622 70.1336 11.041 70.9078 11.0449C71.4652 11.0449 72.0243 11.008 72.5784 11.0805C72.9845 11.1267 73.3594 11.2766 73.6437 11.5067C73.9281 11.7368 74.1059 12.034 74.1489 12.3513C74.2625 13.2244 74.1727 14.1015 74.1947 14.9759C74.1947 15.2103 74.2049 15.4447 74.1947 15.6791C74.1845 15.878 74.2506 15.9623 74.5335 15.9004C75.2976 15.7454 76.0798 15.6505 76.8682 15.6172C79.8349 15.4434 82.2119 16.7932 82.849 19.0412C83.0009 19.5597 83.0782 20.0897 83.0794 20.6215C83.0794 22.9419 83.0794 25.261 83.0794 27.5801C83.0794 28.124 82.7846 28.3597 82.0916 28.3702C81.6489 28.3755 81.2072 28.3755 80.7667 28.3702C80.4981 28.3716 80.2318 28.3314 79.9834 28.2518C79.735 28.1722 79.5095 28.0549 79.3202 27.9068C79.1309 27.7586 78.9815 27.5826 78.8807 27.389C78.78 27.1955 78.73 26.9882 78.7336 26.7794C78.7268 24.8119 78.7268 22.8449 78.7336 20.8783C78.7522 20.4898 78.6951 20.1013 78.5642 19.726C78.3117 19.0886 77.7509 18.737 76.9123 18.6382C76.1385 18.565 75.3538 18.6061 74.5996 18.7594C74.2777 18.816 74.1778 18.9398 74.1794 19.1927C74.1896 21.9002 74.1896 24.6074 74.1794 27.3141C74.1794 27.422 74.1794 27.5314 74.1794 27.6393C74.1337 28.1319 73.8406 28.3623 73.2036 28.3689C72.4016 28.3768 71.5997 28.3768 70.7977 28.3689C70.142 28.3689 69.8455 28.124 69.8455 27.6143C69.8455 24.9805 69.8455 22.3467 69.8455 19.7128L69.8557 19.7076ZM85.348 21.9331C85.3869 21.3023 85.2768 20.4845 85.4039 19.6799C85.7106 17.723 87.0982 16.4574 89.5159 15.9004C91.4638 15.425 93.5615 15.4775 95.4661 16.0492C97.6907 16.7208 98.8546 18.0325 99.0427 19.8682C99.1799 21.2181 99.107 22.5732 99.0884 23.9256C99.0698 25.2781 98.5361 26.5173 97.1434 27.4392C96.098 28.1319 94.8511 28.4519 93.516 28.5849C92.0831 28.7422 90.6226 28.6367 89.2516 28.2767C86.8694 27.638 85.3836 26.0472 85.3548 24.0916C85.3429 23.4331 85.3548 22.7747 85.3548 21.9358L85.348 21.9331ZM89.9191 21.9687C89.9191 22.6983 89.9072 23.2856 89.9191 23.8703C89.9445 24.9041 90.568 25.4994 91.8556 25.6258C93.3805 25.7772 94.7037 25.3624 94.7511 23.9217C94.7901 22.7233 94.7782 21.5236 94.7511 20.3239C94.7291 19.3454 94.0734 18.7212 92.962 18.55C92.6285 18.51 92.29 18.5016 91.9539 18.525C90.8577 18.5658 90.1156 19.1071 89.9716 19.9499C89.8513 20.6689 89.953 21.3919 89.914 21.9687H89.9191ZM125.539 23.1315C124.341 23.1315 123.145 23.1394 121.947 23.1315C121.646 23.1315 121.52 23.2185 121.51 23.4384C121.498 23.7439 121.392 24.0455 121.446 24.3602C121.592 25.1978 122.383 25.7588 123.492 25.8273C124.784 25.9063 125.98 25.6587 127.13 25.232C128.038 24.8949 128.219 24.9344 128.76 25.6034C129.121 26.0485 129.421 26.5055 129.099 27.052C128.984 27.3013 128.761 27.5117 128.469 27.6472C125.67 28.7469 122.794 28.9642 119.921 27.8948C118.132 27.2364 117.171 26.0143 117.02 24.4893C116.872 22.8605 116.872 21.2257 117.02 19.5969C117.171 17.7638 118.732 16.3112 121.087 15.7884C122.702 15.4167 124.421 15.4135 126.039 15.7792C128.241 16.2783 129.5 17.4635 129.865 19.2032C130.088 20.2857 130.009 21.3814 129.983 22.4718C129.971 22.934 129.644 23.1368 129.029 23.1381H125.539V23.1315ZM123.709 21.1074C124.37 21.1074 125.033 21.1074 125.693 21.1074C125.91 21.1074 126.015 21.0521 126.008 20.873C125.998 20.5938 126.019 20.3133 126 20.0355C125.937 19.0768 125.258 18.4552 124.074 18.3367C122.85 18.2116 121.68 18.5803 121.466 19.7774C121.402 20.1369 121.449 20.4977 121.429 20.8572C121.417 21.0469 121.524 21.1101 121.759 21.1074C122.41 21.1009 123.059 21.1074 123.709 21.1074V21.1074ZM101.594 22.3704C101.594 20.683 101.594 18.9956 101.594 17.3081C101.594 16.7366 101.835 16.5022 102.531 16.3218C104.27 15.8549 106.095 15.6124 107.934 15.6041C109.718 15.6041 111.433 15.8464 112.847 16.7893C113.983 17.5465 114.508 18.546 114.735 19.6654C114.797 20.032 114.823 20.4019 114.811 20.7716C114.811 23.0367 114.811 25.3018 114.811 27.5669C114.811 28.1477 114.533 28.3689 113.778 28.365C113.21 28.365 112.639 28.4045 112.073 28.3334C111.129 28.2135 110.518 27.6749 110.514 26.9322C110.504 25.0095 110.514 23.0881 110.514 21.1654C110.528 20.7325 110.486 20.2997 110.387 19.8735C110.164 19.0294 109.449 18.5566 108.344 18.5184C107.682 18.4993 107.02 18.5298 106.365 18.6093C106.026 18.6501 105.933 18.766 105.935 19.0188C105.943 21.7791 105.943 24.5402 105.935 27.3022C105.935 27.4102 105.935 27.5195 105.935 27.6262C105.927 27.7964 105.834 27.9576 105.676 28.0757C105.518 28.1938 105.307 28.2597 105.088 28.2596C104.193 28.2728 103.297 28.2741 102.402 28.2596C101.894 28.2517 101.594 27.9844 101.593 27.5656C101.593 25.8325 101.593 24.0999 101.593 22.3677" fill="white"/>
<path d="M23.9973 17.6453C23.9973 18.6474 23.9888 19.6483 23.9973 20.6492C24.013 20.7464 23.9817 20.8448 23.9094 20.9251C23.8371 21.0054 23.7289 21.062 23.6059 21.0837C22.7785 21.3049 21.9003 21.3875 21.0289 21.3261C19.5465 21.2167 18.718 20.5359 18.5926 19.3678C18.4774 18.2958 18.5621 17.2225 18.5384 16.1493C18.5282 15.6225 18.5384 15.1036 18.5384 14.5808C18.5384 14.3635 18.6299 14.2753 18.923 14.2766C20.48 14.2845 22.037 14.2871 23.5924 14.2766C23.9312 14.2766 24.0024 14.3833 24.0007 14.6164C23.9905 15.6264 24.0007 16.6365 24.0007 17.6453" fill="white"/>
</g>
<defs>
<clipPath id="clip0">
<rect width="161" height="34" fill="white"/>
</clipPath>
</defs>
</svg>
